<svg width="24" height="25" viewBox="0 0 24 25" fill="none" xmlns="http://www.w3.org/2000/svg">
<path d="M16.5 6.45703H13.5C12.9477 6.45703 12.5 6.90475 12.5 7.45703V10.457H16.5C16.6137 10.4545 16.7216 10.5074 16.7892 10.5989C16.8568 10.6904 16.8758 10.809 16.84 10.917L16.1 13.117C16.0318 13.3189 15.8431 13.4554 15.63 13.457H12.5V20.957C12.5 21.2331 12.2761 21.457 12 21.457H9.5C9.22386 21.457 9 21.2331 9 20.957V13.457H7.5C7.22386 13.457 7 13.2331 7 12.957V10.957C7 10.6809 7.22386 10.457 7.5 10.457H9V7.45703C9 5.24789 10.7909 3.45703 13 3.45703H16.5C16.7761 3.45703 17 3.68089 17 3.95703V5.95703C17 6.23317 16.7761 6.45703 16.5 6.45703Z" fill="white"/>
</svg>
