<svg width="24" height="25" viewBox="0 0 24 25" fill="none" xmlns="http://www.w3.org/2000/svg">
<path fill-rule="evenodd" clip-rule="evenodd" d="M16 3.45703H8C5.23858 3.45703 3 5.69561 3 8.45703V16.457C3 19.2184 5.23858 21.457 8 21.457H16C18.7614 21.457 21 19.2184 21 16.457V8.45703C21 5.69561 18.7614 3.45703 16 3.45703ZM19.25 16.457C19.2445 18.2496 17.7926 19.7015 16 19.707H8C6.20735 19.7015 4.75549 18.2496 4.75 16.457V8.45703C4.75549 6.66438 6.20735 5.21252 8 5.20703H16C17.7926 5.21252 19.2445 6.66438 19.25 8.45703V16.457ZM16.75 8.70703C17.3023 8.70703 17.75 8.25931 17.75 7.70703C17.75 7.15475 17.3023 6.70703 16.75 6.70703C16.1977 6.70703 15.75 7.15475 15.75 7.70703C15.75 8.25931 16.1977 8.70703 16.75 8.70703ZM12 7.95703C9.51472 7.95703 7.5 9.97175 7.5 12.457C7.5 14.9423 9.51472 16.957 12 16.957C14.4853 16.957 16.5 14.9423 16.5 12.457C16.5027 11.2627 16.0294 10.1166 15.1849 9.27211C14.3404 8.42762 13.1943 7.95437 12 7.95703ZM9.25 12.457C9.25 13.9758 10.4812 15.207 12 15.207C13.5188 15.207 14.75 13.9758 14.75 12.457C14.75 10.9382 13.5188 9.70703 12 9.70703C10.4812 9.70703 9.25 10.9382 9.25 12.457Z" fill="white"/>
</svg>
