<svg width="24" height="25" viewBox="0 0 24 25" fill="none" xmlns="http://www.w3.org/2000/svg">
<path fill-rule="evenodd" clip-rule="evenodd" d="M5 3.45703H19C20.1046 3.45703 21 4.35246 21 5.45703V19.457C21 20.5616 20.1046 21.457 19 21.457H5C3.89543 21.457 3 20.5616 3 19.457V5.45703C3 4.35246 3.89543 3.45703 5 3.45703ZM8 18.457C8.27614 18.457 8.5 18.2331 8.5 17.957V10.957C8.5 10.6809 8.27614 10.457 8 10.457H6.5C6.22386 10.457 6 10.6809 6 10.957V17.957C6 18.2331 6.22386 18.457 6.5 18.457H8ZM7.25 9.45703C6.42157 9.45703 5.75 8.78546 5.75 7.95703C5.75 7.1286 6.42157 6.45703 7.25 6.45703C8.07843 6.45703 8.75 7.1286 8.75 7.95703C8.75 8.78546 8.07843 9.45703 7.25 9.45703ZM17.5 18.457C17.7761 18.457 18 18.2331 18 17.957V13.357C18.0325 11.7678 16.8576 10.4116 15.28 10.217C14.177 10.1163 13.1083 10.6314 12.5 11.557V10.957C12.5 10.6809 12.2761 10.457 12 10.457H10.5C10.2239 10.457 10 10.6809 10 10.957V17.957C10 18.2331 10.2239 18.457 10.5 18.457H12C12.2761 18.457 12.5 18.2331 12.5 17.957V14.207C12.5 13.3786 13.1716 12.707 14 12.707C14.8284 12.707 15.5 13.3786 15.5 14.207V17.957C15.5 18.2331 15.7239 18.457 16 18.457H17.5Z" fill="white"/>
</svg>
