<svg width="20" height="20" viewBox="0 0 20 20" fill="none" xmlns="http://www.w3.org/2000/svg">
<path d="M9.07088 1.18046C9.41462 0.364 10.5854 0.364001 10.9291 1.18046L12.9579 5.99935C13.1029 6.34355 13.4306 6.57873 13.8067 6.60852L19.0727 7.02559C19.9649 7.09626 20.3267 8.19625 19.6469 8.77151L15.6348 12.1668C15.3482 12.4093 15.223 12.7899 15.3106 13.1524L16.5363 18.2291C16.744 19.0892 15.7969 19.7691 15.033 19.3082L10.5245 16.5877C10.2025 16.3933 9.7975 16.3933 9.47548 16.5877L4.96699 19.3082C4.20311 19.7691 3.25596 19.0892 3.46363 18.2291L4.68942 13.1524C4.77698 12.7899 4.65182 12.4093 4.36526 12.1668L0.353062 8.77151C-0.326718 8.19625 0.0350679 7.09626 0.927291 7.02559L6.19336 6.60852C6.5695 6.57873 6.89716 6.34355 7.04207 5.99935L9.07088 1.18046Z" fill="white"/>
</svg>
