<svg width="24" height="25" viewBox="0 0 24 25" fill="none" xmlns="http://www.w3.org/2000/svg">
<path d="M21.5933 7.66004C21.4794 7.23744 21.2568 6.85204 20.9477 6.54221C20.6386 6.23237 20.2537 6.0089 19.8313 5.89404C18.2653 5.46404 12.0003 5.45704 12.0003 5.45704C12.0003 5.45704 5.73633 5.45004 4.16933 5.86104C3.74725 5.98119 3.36315 6.20782 3.0539 6.51917C2.74464 6.83053 2.52062 7.21616 2.40333 7.63904C1.99033 9.20504 1.98633 12.453 1.98633 12.453C1.98633 12.453 1.98233 15.717 2.39233 17.267C2.62233 18.124 3.29733 18.801 4.15533 19.032C5.73733 19.462 11.9853 19.469 11.9853 19.469C11.9853 19.469 18.2503 19.476 19.8163 19.066C20.2388 18.9514 20.6241 18.7284 20.934 18.4192C21.2439 18.11 21.4677 17.7253 21.5833 17.303C21.9973 15.738 22.0003 12.491 22.0003 12.491C22.0003 12.491 22.0203 9.22604 21.5933 7.66004ZM9.99633 15.462L10.0013 9.46204L15.2083 12.467L9.99633 15.462Z" fill="white"/>
</svg>
